<?xml version="1.0" encoding="UTF-8" standalone="no"?>
<!DOCTYPE svg PUBLIC "-//W3C//DTD SVG 1.1//EN" "http://www.w3.org/Graphics/SVG/1.1/DTD/svg11.dtd">
<svg version="1.1" xmlns="http://www.w3.org/2000/svg" xmlns:xlink="http://www.w3.org/1999/xlink" preserveAspectRatio="xMidYMid meet" viewBox="0 0 640 640" width="640" height="640"><defs><path d="M521.26 329.64C521.26 453.18 521.26 521.8 521.26 535.53C521.26 535.53 521.26 535.53 521.26 535.53C408.47 535.53 345.8 535.53 333.26 535.53C333.26 535.53 333.26 535.53 333.26 535.53C333.26 411.99 333.26 343.37 333.26 329.64C333.26 329.64 333.26 329.64 333.26 329.64C446.05 329.64 508.72 329.64 521.26 329.64C521.26 329.64 521.26 329.64 521.26 329.64Z" id="amlFmEGix"></path><path d="M521.26 329.64C521.26 453.18 521.26 521.8 521.26 535.53C521.26 535.53 521.26 535.53 521.26 535.53C408.47 535.53 345.8 535.53 333.26 535.53C333.26 535.53 333.26 535.53 333.26 535.53C333.26 411.99 333.26 343.37 333.26 329.64C333.26 329.64 333.26 329.64 333.26 329.64C446.05 329.64 508.72 329.64 521.26 329.64C521.26 329.64 521.26 329.64 521.26 329.64Z" id="e14kj1s4Lp"></path><path d="M302.57 329.64C302.57 453.18 302.57 521.8 302.57 535.53C302.57 535.53 302.57 535.53 302.57 535.53C192.27 535.53 131 535.53 118.74 535.53C118.74 535.53 118.74 535.53 118.74 535.53C118.74 411.99 118.74 343.37 118.74 329.64C118.74 329.64 118.74 329.64 118.74 329.64C229.03 329.64 290.3 329.64 302.57 329.64C302.57 329.64 302.57 329.64 302.57 329.64Z" id="c27Ucm0yW"></path><path d="M302.57 329.64C302.57 453.18 302.57 521.8 302.57 535.53C302.57 535.53 302.57 535.53 302.57 535.53C192.27 535.53 131 535.53 118.74 535.53C118.74 535.53 118.74 535.53 118.74 535.53C118.74 411.99 118.74 343.37 118.74 329.64C118.74 329.64 118.74 329.64 118.74 329.64C229.03 329.64 290.3 329.64 302.57 329.64C302.57 329.64 302.57 329.64 302.57 329.64Z" id="d1rHvWMdHL"></path><path d="M521.26 104.47C521.26 226.69 521.26 294.59 521.26 308.17C521.26 308.17 521.26 308.17 521.26 308.17C408.47 308.17 345.8 308.17 333.26 308.17C333.26 308.17 333.26 308.17 333.26 308.17C333.26 185.95 333.26 118.05 333.26 104.47C333.26 104.47 333.26 104.47 333.26 104.47C446.05 104.47 508.72 104.47 521.26 104.47C521.26 104.47 521.26 104.47 521.26 104.47Z" id="cH08qnjBt"></path><path d="M521.26 104.47C521.26 226.69 521.26 294.59 521.26 308.17C521.26 308.17 521.26 308.17 521.26 308.17C408.47 308.17 345.8 308.17 333.26 308.17C333.26 308.17 333.26 308.17 333.26 308.17C333.26 185.95 333.26 118.05 333.26 104.47C333.26 104.47 333.26 104.47 333.26 104.47C446.05 104.47 508.72 104.47 521.26 104.47C521.26 104.47 521.26 104.47 521.26 104.47Z" id="a65sCK2A38"></path></defs><g><g><g><use xlink:href="#amlFmEGix" opacity="1" fill="#5271ff" fill-opacity="1"></use><g><use xlink:href="#amlFmEGix" opacity="1" fill-opacity="0" stroke="#000000" stroke-width="1" stroke-opacity="0"></use></g></g><g><use xlink:href="#e14kj1s4Lp" opacity="1" fill="#000000" fill-opacity="0"></use><g><use xlink:href="#e14kj1s4Lp" opacity="1" fill-opacity="0" stroke="#000000" stroke-width="3.05" stroke-opacity="0"></use></g></g><g><use xlink:href="#c27Ucm0yW" opacity="1" fill="#9cecef" fill-opacity="1"></use><g><use xlink:href="#c27Ucm0yW" opacity="1" fill-opacity="0" stroke="#000000" stroke-width="1" stroke-opacity="0"></use></g></g><g><use xlink:href="#d1rHvWMdHL" opacity="1" fill="#000000" fill-opacity="0"></use><g><use xlink:href="#d1rHvWMdHL" opacity="1" fill-opacity="0" stroke="#000000" stroke-width="3.01" stroke-opacity="0"></use></g></g><g><use xlink:href="#cH08qnjBt" opacity="1" fill="#748dff" fill-opacity="1"></use><g><use xlink:href="#cH08qnjBt" opacity="1" fill-opacity="0" stroke="#000000" stroke-width="1" stroke-opacity="0"></use></g></g><g><use xlink:href="#a65sCK2A38" opacity="1" fill="#000000" fill-opacity="0"></use><g><use xlink:href="#a65sCK2A38" opacity="1" fill-opacity="0" stroke="#000000" stroke-width="3.02" stroke-opacity="0"></use></g></g></g></g></svg>