<?xml version="1.0" encoding="UTF-8" standalone="no"?>
<!-- Created with Inkscape (http://www.inkscape.org/) -->

<svg
   xmlns:dc="http://purl.org/dc/elements/1.1/"
   xmlns:cc="http://creativecommons.org/ns#"
   xmlns:rdf="http://www.w3.org/1999/02/22-rdf-syntax-ns#"
   xmlns:svg="http://www.w3.org/2000/svg"
   xmlns="http://www.w3.org/2000/svg"
   xmlns:sodipodi="http://sodipodi.sourceforge.net/DTD/sodipodi-0.dtd"
   xmlns:inkscape="http://www.inkscape.org/namespaces/inkscape"
   width="15.501656mm"
   height="14.936129mm"
   viewBox="0 0 15.501656 14.936129"
   version="1.1"
   id="svg8"
   sodipodi:docname="Gude_logo.svg"
   inkscape:version="0.92.4 (5da689c313, 2019-01-14)">
  <defs
     id="defs2" />
  <sodipodi:namedview
     id="base"
     pagecolor="#ffffff"
     bordercolor="#666666"
     borderopacity="1.0"
     inkscape:pageopacity="0.0"
     inkscape:pageshadow="2"
     inkscape:zoom="1.979899"
     inkscape:cx="102.87809"
     inkscape:cy="-40.405508"
     inkscape:document-units="mm"
     inkscape:current-layer="g828"
     showgrid="false"
     inkscape:window-width="1920"
     inkscape:window-height="986"
     inkscape:window-x="-11"
     inkscape:window-y="-11"
     inkscape:window-maximized="1"
     fit-margin-top="1"
     fit-margin-left="1"
     fit-margin-right="1"
     fit-margin-bottom="1" />
  <metadata
     id="metadata5">
    <rdf:RDF>
      <cc:Work
         rdf:about="">
        <dc:format>image/svg+xml</dc:format>
        <dc:type
           rdf:resource="http://purl.org/dc/dcmitype/StillImage" />
        <dc:title />
      </cc:Work>
    </rdf:RDF>
  </metadata>
  <g
     inkscape:label="レイヤー 1"
     inkscape:groupmode="layer"
     id="layer1"
     transform="translate(10.01228,-35.423214)">
    <g
       id="g868"
       transform="translate(373.44048,78.619048)">
      <g
         id="g828"
         transform="matrix(0.05741645,0,0,0.05741645,-360.49368,-39.773099)">
        <g
           id="g848">
          <rect
             y="35.516071"
             x="-259.06488"
             height="71.059525"
             width="68.035713"
             id="rect826"
             style="opacity:1;fill:#5271ff;fill-opacity:1;stroke:none;stroke-width:3.04871774;stroke-linecap:round;stroke-linejoin:miter;stroke-miterlimit:4;stroke-dasharray:none;stroke-dashoffset:0;stroke-opacity:1;paint-order:markers fill stroke" />
          <rect
             y="35.516071"
             x="-336.70135"
             height="71.059525"
             width="66.523811"
             id="rect826-6"
             style="opacity:1;fill:#9cecef;fill-opacity:1;stroke:none;stroke-width:3.01465273;stroke-linecap:round;stroke-linejoin:miter;stroke-miterlimit:4;stroke-dasharray:none;stroke-dashoffset:0;stroke-opacity:1;paint-order:markers fill stroke" />
          <rect
             y="-42.195835"
             x="-259.06488"
             height="70.303566"
             width="68.035713"
             id="rect843"
             style="opacity:1;fill:#748dff;fill-opacity:1;stroke:none;stroke-width:3.01594019;stroke-linecap:round;stroke-linejoin:miter;stroke-miterlimit:4;stroke-dasharray:none;stroke-dashoffset:0;stroke-opacity:1;paint-order:markers fill stroke" />
        </g>
        <g
           aria-label="Gude Inc"
           transform="scale(1.0337854,0.96731872)"
           style="font-style:normal;font-variant:normal;font-weight:normal;font-stretch:extra-condensed;font-size:64.44244385px;line-height:2.25;font-family:Algerian;-inkscape-font-specification:'Algerian, Extra-Condensed';font-variant-ligatures:normal;font-variant-caps:normal;font-variant-numeric:normal;font-feature-settings:normal;text-align:start;letter-spacing:0px;word-spacing:0px;writing-mode:lr-tb;text-anchor:start;fill:#000000;fill-opacity:1;stroke:none;stroke-width:0.8630684"
           id="text860">
          <path
             d="m -336.81999,153.51718 q 0,0.59786 -0.0629,1.06985 -0.0629,0.44052 -0.1888,0.75518 -0.12586,0.2832 -0.31466,0.40906 -0.1888,0.12587 -0.40906,0.12587 -0.37759,0 -1.25864,-0.59786 -0.88105,-0.59785 -2.35995,-1.32157 -1.47891,-0.72372 -3.55567,-1.32158 -2.04529,-0.59785 -4.87723,-0.59785 -3.36687,0 -6.04148,1.22718 -2.67461,1.22717 -4.53111,3.39833 -1.8565,2.17115 -2.86341,5.16043 -0.97545,2.98927 -0.97545,6.482 0,3.90179 1.06985,6.92253 1.10131,3.02074 3.02074,5.0975 1.91943,2.07676 4.56257,3.1466 2.67462,1.06985 5.85269,1.06985 1.88796,0 3.80739,-0.44053 1.95089,-0.47199 3.61859,-1.3845 v -11.8627 h -9.43981 q -0.53492,0 -0.81812,-0.53492 -0.25173,-0.53493 -0.25173,-1.6677 0,-0.59786 0.0629,-1.00692 0.0629,-0.44052 0.18879,-0.69225 0.15733,-0.28319 0.34613,-0.40906 0.1888,-0.12586 0.47199,-0.12586 h 12.93254 q 0.34613,0 0.69225,0.12586 0.34613,0.12587 0.62932,0.3776 0.2832,0.25172 0.44053,0.69225 0.15733,0.44052 0.15733,1.00691 v 15.51276 q 0,0.81811 -0.28319,1.41597 -0.2832,0.59785 -1.19571,1.06984 -0.91252,0.44053 -2.35996,0.97545 -1.44743,0.53492 -2.98927,0.91252 -1.54184,0.37759 -3.11514,0.56639 -1.5733,0.18879 -3.11514,0.18879 -4.7199,0 -8.43289,-1.44744 -3.713,-1.4789 -6.29321,-4.18498 -2.54875,-2.70608 -3.90179,-6.482 -1.35304,-3.77593 -1.35304,-8.4329 0,-4.84577 1.44744,-8.77903 1.4789,-3.93325 4.12205,-6.70226 2.67461,-2.76901 6.3876,-4.27938 3.74446,-1.54184 8.27557,-1.54184 2.32849,0 4.37378,0.40906 2.04529,0.40906 3.6186,0.97545 1.60476,0.53492 2.67461,1.19571 1.10131,0.62932 1.51037,1.03838 0.40906,0.40905 0.56639,0.94398 0.15733,0.53492 0.15733,1.54183 z"
             style="font-style:normal;font-variant:normal;font-weight:normal;font-stretch:normal;font-family:Calibri;-inkscape-font-specification:Calibri;stroke-width:0.8630684"
             id="path820" />
          <path
             d="m -303.0884,187.90956 q 0,0.25173 -0.12586,0.44053 -0.0944,0.15733 -0.3776,0.28319 -0.28319,0.12586 -0.75518,0.1888 -0.44053,0.0629 -1.10131,0.0629 -0.72372,0 -1.19571,-0.0629 -0.44053,-0.0629 -0.72372,-0.1888 -0.25173,-0.12586 -0.34613,-0.28319 -0.0944,-0.1888 -0.0944,-0.44053 v -3.74446 q -2.42289,2.67462 -4.78284,3.90179 -2.35996,1.22718 -4.78284,1.22718 -2.83194,0 -4.78284,-0.94398 -1.91943,-0.94398 -3.11514,-2.54875 -1.1957,-1.63624 -1.73063,-3.77593 -0.50345,-2.17115 -0.50345,-5.25483 v -17.18045 q 0,-0.25173 0.0944,-0.40906 0.12587,-0.1888 0.44053,-0.31466 0.31466,-0.15733 0.81812,-0.1888 0.50345,-0.0629 1.25864,-0.0629 0.75518,0 1.25864,0.0629 0.50346,0.0315 0.78665,0.1888 0.31466,0.12586 0.44052,0.31466 0.12587,0.15733 0.12587,0.40906 v 16.4882 q 0,2.48582 0.34612,3.99619 0.3776,1.4789 1.10132,2.54875 0.75518,1.03838 1.88796,1.63623 1.13278,0.56639 2.64315,0.56639 1.95089,0 3.87032,-1.38451 1.95089,-1.3845 4.12205,-4.05911 v -19.79214 q 0,-0.25173 0.0944,-0.40906 0.12586,-0.1888 0.44052,-0.31466 0.31466,-0.15733 0.78665,-0.1888 0.50346,-0.0629 1.29011,-0.0629 0.75518,0 1.25864,0.0629 0.50346,0.0315 0.78665,0.1888 0.2832,0.12586 0.40906,0.31466 0.15733,0.15733 0.15733,0.40906 z"
             style="font-style:normal;font-variant:normal;font-weight:normal;font-stretch:normal;font-family:Calibri;-inkscape-font-specification:Calibri;stroke-width:0.8630684"
             id="path822" />
          <path
             d="m -269.23094,187.90956 q 0,0.25173 -0.12586,0.44053 -0.0944,0.18879 -0.3776,0.31466 -0.25172,0.0944 -0.69225,0.15733 -0.44052,0.0629 -1.06984,0.0629 -0.66079,0 -1.10131,-0.0629 -0.44053,-0.0629 -0.72372,-0.15733 -0.2832,-0.12587 -0.40906,-0.31466 -0.12587,-0.1888 -0.12587,-0.44053 v -3.74446 q -2.23409,2.42289 -4.65697,3.77593 -2.39142,1.35304 -5.25483,1.35304 -3.11514,0 -5.31776,-1.19571 -2.20262,-1.22718 -3.58713,-3.27247 -1.35304,-2.07676 -1.98236,-4.84577 -0.62932,-2.80048 -0.62932,-5.88415 0,-3.65006 0.78665,-6.5764 0.78665,-2.95781 2.32849,-5.03457 1.54184,-2.07675 3.80739,-3.17807 2.29702,-1.13277 5.28629,-1.13277 2.48582,0 4.53111,1.10131 2.07676,1.06984 4.09059,3.17807 V 145.9968 q 0,-0.22026 0.0944,-0.40906 0.12586,-0.22026 0.44052,-0.31466 0.31466,-0.12586 0.78665,-0.18879 0.50346,-0.0944 1.25864,-0.0944 0.78665,0 1.29011,0.0944 0.50346,0.0629 0.78665,0.18879 0.2832,0.0944 0.40906,0.31466 0.15733,0.1888 0.15733,0.40906 z m -5.22336,-19.918 q -2.10823,-2.61168 -4.09059,-3.96472 -1.95089,-1.38451 -4.09058,-1.38451 -1.98236,0 -3.36687,0.94399 -1.3845,0.94398 -2.26555,2.48581 -0.84958,1.54184 -1.25864,3.49273 -0.3776,1.9509 -0.3776,3.96472 0,2.13969 0.31467,4.18499 0.34612,2.04529 1.16424,3.65006 0.81812,1.5733 2.17115,2.54875 1.35304,0.94398 3.39834,0.94398 1.03838,0 1.98236,-0.2832 0.97544,-0.28319 1.98236,-0.94398 1.00691,-0.66079 2.10822,-1.69917 1.10131,-1.06984 2.32849,-2.61168 z"
             style="font-style:normal;font-variant:normal;font-weight:normal;font-stretch:normal;font-family:Calibri;-inkscape-font-specification:Calibri;stroke-width:0.8630684"
             id="path824" />
          <path
             d="m -235.46788,172.52267 q 0,1.22718 -0.62933,1.7621 -0.59785,0.50345 -1.3845,0.50345 h -18.56496 q 0,2.35996 0.47199,4.24792 0.47199,1.88796 1.5733,3.241 1.10131,1.35304 2.86341,2.07676 1.7621,0.72372 4.31085,0.72372 2.01382,0 3.58712,-0.31466 1.57331,-0.34613 2.70608,-0.75519 1.16425,-0.40906 1.88797,-0.72372 0.75518,-0.34612 1.13277,-0.34612 0.22027,0 0.3776,0.12586 0.18879,0.0944 0.28319,0.31466 0.0944,0.22026 0.12586,0.62932 0.0629,0.3776 0.0629,0.94398 0,0.40906 -0.0315,0.72372 -0.0315,0.2832 -0.0944,0.53493 -0.0315,0.22026 -0.15733,0.40905 -0.0944,0.1888 -0.28319,0.3776 -0.15733,0.15733 -1.00692,0.56639 -0.84958,0.37759 -2.20262,0.75518 -1.35304,0.37759 -3.1466,0.66079 -1.7621,0.31466 -3.77593,0.31466 -3.49273,0 -6.13587,-0.97545 -2.61169,-0.97545 -4.40525,-2.89488 -1.79356,-1.91942 -2.70608,-4.8143 -0.91251,-2.89487 -0.91251,-6.73373 0,-3.65006 0.94398,-6.54494 0.94398,-2.92634 2.70608,-4.94016 1.79356,-2.0453 4.31084,-3.11514 2.51729,-1.10131 5.63242,-1.10131 3.3354,0 5.66389,1.06984 2.35995,1.06985 3.87032,2.89488 1.51037,1.79356 2.20263,4.24791 0.72372,2.42289 0.72372,5.1919 z m -5.22337,-1.54184 q 0.0944,-4.09058 -1.82503,-6.41907 -1.88796,-2.32848 -5.63242,-2.32848 -1.91943,0 -3.36686,0.72371 -1.44744,0.72372 -2.42289,1.91943 -0.97545,1.19571 -1.51037,2.80048 -0.53492,1.5733 -0.59785,3.30393 z"
             style="font-style:normal;font-variant:normal;font-weight:normal;font-stretch:normal;font-family:Calibri;-inkscape-font-specification:Calibri;stroke-width:0.8630684"
             id="path826" />
          <path
             d="m -206.92819,187.8781 q 0,0.25172 -0.12586,0.44052 -0.12586,0.1888 -0.44052,0.31466 -0.31466,0.0944 -0.84959,0.15733 -0.50345,0.0944 -1.2901,0.0944 -0.75519,0 -1.29011,-0.0944 -0.53493,-0.0629 -0.84959,-0.15733 -0.31466,-0.12586 -0.44052,-0.31466 -0.12586,-0.1888 -0.12586,-0.44052 v -39.08082 q 0,-0.25173 0.12586,-0.44053 0.15733,-0.18879 0.47199,-0.28319 0.34613,-0.12587 0.84958,-0.1888 0.53493,-0.0944 1.25865,-0.0944 0.78665,0 1.2901,0.0944 0.53493,0.0629 0.84959,0.1888 0.31466,0.0944 0.44052,0.28319 0.12586,0.1888 0.12586,0.44053 z"
             style="font-style:normal;font-variant:normal;font-weight:normal;font-stretch:normal;font-family:Calibri;-inkscape-font-specification:Calibri;stroke-width:0.8630684"
             id="path828" />
          <path
             d="m -172.31555,187.90956 q 0,0.25173 -0.12587,0.44053 -0.12586,0.15733 -0.40906,0.28319 -0.28319,0.12586 -0.78665,0.1888 -0.50345,0.0629 -1.25864,0.0629 -0.78665,0 -1.29011,-0.0629 -0.50345,-0.0629 -0.78665,-0.1888 -0.28319,-0.12586 -0.40906,-0.28319 -0.12586,-0.1888 -0.12586,-0.44053 v -16.5826 q 0,-2.42288 -0.37759,-3.90179 -0.3776,-1.4789 -1.10131,-2.54875 -0.72372,-1.06984 -1.88797,-1.63623 -1.13277,-0.56639 -2.64314,-0.56639 -1.9509,0 -3.90179,1.38451 -1.9509,1.3845 -4.09059,4.05911 v 19.79214 q 0,0.25173 -0.12586,0.44053 -0.12587,0.15733 -0.40906,0.28319 -0.28319,0.12586 -0.78665,0.1888 -0.50346,0.0629 -1.29011,0.0629 -0.75518,0 -1.25864,-0.0629 -0.50346,-0.0629 -0.81812,-0.1888 -0.28319,-0.12586 -0.40906,-0.28319 -0.0944,-0.1888 -0.0944,-0.44053 v -28.31943 q 0,-0.25173 0.0944,-0.40906 0.0944,-0.1888 0.3776,-0.31466 0.28319,-0.15733 0.72372,-0.1888 0.44052,-0.0629 1.16424,-0.0629 0.69225,0 1.13278,0.0629 0.47199,0.0315 0.72372,0.1888 0.25172,0.12586 0.34612,0.31466 0.12587,0.15733 0.12587,0.40906 v 3.74446 q 2.39142,-2.67462 4.75137,-3.90179 2.39142,-1.25864 4.8143,-1.25864 2.83194,0 4.75137,0.97544 1.9509,0.94399 3.14661,2.54875 1.19571,1.60477 1.69916,3.77593 0.53493,2.13969 0.53493,5.16043 z"
             style="font-style:normal;font-variant:normal;font-weight:normal;font-stretch:normal;font-family:Calibri;-inkscape-font-specification:Calibri;stroke-width:0.8630684"
             id="path830" />
          <path
             d="m -142.48574,183.59871 q 0,0.53493 -0.0315,0.94399 -0.0315,0.37759 -0.12586,0.66078 -0.0629,0.25173 -0.1888,0.47199 -0.0944,0.1888 -0.50345,0.59786 -0.3776,0.37759 -1.32158,0.97545 -0.94398,0.56638 -2.13969,1.03837 -1.16424,0.44053 -2.54875,0.72372 -1.3845,0.2832 -2.86341,0.2832 -3.0522,0 -5.41215,-1.00692 -2.35996,-1.00691 -3.96472,-2.92634 -1.57331,-1.95089 -2.42289,-4.75137 -0.81812,-2.83194 -0.81812,-6.51347 0,-4.18498 1.00692,-7.17425 1.03838,-3.02074 2.80047,-4.94017 1.79357,-1.91943 4.18499,-2.83195 2.42288,-0.94398 5.22336,-0.94398 1.35304,0 2.61168,0.25173 1.29011,0.25173 2.35995,0.66079 1.06985,0.40906 1.88797,0.94398 0.84958,0.53492 1.22717,0.91251 0.37759,0.3776 0.50346,0.59786 0.15733,0.22026 0.25173,0.53492 0.0944,0.2832 0.12586,0.66079 0.0315,0.37759 0.0315,0.94398 0,1.22717 -0.2832,1.73063 -0.28319,0.47199 -0.69225,0.47199 -0.47199,0 -1.10131,-0.50345 -0.59786,-0.53493 -1.54184,-1.16425 -0.94398,-0.62932 -2.29702,-1.13278 -1.32157,-0.53492 -3.1466,-0.53492 -3.74446,0 -5.75829,2.89488 -1.98236,2.86341 -1.98236,8.3385 0,2.73754 0.50346,4.8143 0.53492,2.04529 1.54183,3.4298 1.00692,1.3845 2.45436,2.07676 1.4789,0.66078 3.36686,0.66078 1.79357,0 3.14661,-0.56638 1.35303,-0.56639 2.32848,-1.22718 1.00692,-0.69225 1.6677,-1.22718 0.69225,-0.56638 1.06985,-0.56638 0.22026,0 0.37759,0.12586 0.15733,0.12586 0.25173,0.44052 0.12586,0.2832 0.15733,0.75519 0.0629,0.44052 0.0629,1.06984 z"
             style="font-style:normal;font-variant:normal;font-weight:normal;font-stretch:normal;font-family:Calibri;-inkscape-font-specification:Calibri;stroke-width:0.8630684"
             id="path832" />
        </g>
      </g>
    </g>
  </g>
</svg>
